<svg width="100" height="100" viewBox="0 0 100 100" xmlns="http://www.w3.org/2000/svg" fill="none">
  <title>Robot Head with Cloud Brain Logo</title>

  <path d="M 50,15
           C 40,15 35,20 30,25
           C 20,25 15,35 20,45
           L 20,55
           C 20,55 25,60 35,60
           L 65,60
           C 75,60 80,55 80,55
           L 80,45
           C 85,35 80,25 70,25
           C 65,20 60,15 50,15 Z"
        fill="#E0F2FE"
        stroke="#0284C7"
        stroke-width="2"
        stroke-linejoin="round"/>

  <path d="M 25,58
           L 25,75
           A 5 5 0 0 0 30 80
           L 70 80
           A 5 5 0 0 0 75 75
           L 75,58 Z"
        fill="#9CA3AF"
        stroke="#4B5563"
        stroke-width="2"/>

  <circle cx="40" cy="70" r="5" fill="#3B82F6"/>
  <circle cx="60" cy="70" r="5" fill="#3B82F6"/>
</svg>